<svg width="48" height="48" viewBox="0 0 48 48" fill="none" xmlns="http://www.w3.org/2000/svg">
<path d="M24 16.4999C24 12.3749 27.4688 8.9437 31.5938 8.99995C33.0384 9.01663 34.4474 9.45017 35.6515 10.2485C36.8556 11.0468 37.8035 12.1758 38.3813 13.4999H45L38.9438 19.5562C38.553 25.6398 35.8599 31.3462 31.4123 35.5152C26.9646 39.6842 21.0962 42.003 15 41.9999C9.00004 41.9999 7.50004 39.7499 7.50004 39.7499C7.50004 39.7499 13.5 37.4999 16.5 32.9999C16.5 32.9999 4.50004 26.9999 7.50004 10.4999C7.50004 10.4999 15 17.9999 24 19.4999V16.4999Z" stroke="white" stroke-width="2" stroke-linecap="round" stroke-linejoin="round"/>
</svg>
